<svg width="19" height="20" viewBox="0 0 19 20" fill="none" xmlns="http://www.w3.org/2000/svg">
<path fill-rule="evenodd" clip-rule="evenodd" d="M16.9749 1.81818H16.0386V0.909091C16.0386 0.409091 15.6172 0 15.1023 0C14.5873 0 14.1659 0.409091 14.1659 0.909091V1.81818H4.80271V0.909091C4.80271 0.409091 4.38136 0 3.86639 0C3.35141 0 2.93006 0.409091 2.93006 0.909091V1.81818H1.99374C0.963784 1.81818 0.121094 2.63636 0.121094 3.63636V18.1818C0.121094 19.1818 0.963784 20 1.99374 20H16.9749C18.0049 20 18.8476 19.1818 18.8476 18.1818V3.63636C18.8476 2.63636 18.0049 1.81818 16.9749 1.81818ZM16.0386 18.1818H2.93006C2.41508 18.1818 1.99374 17.7727 1.99374 17.2727V6.36364H16.9749V17.2727C16.9749 17.7727 16.5536 18.1818 16.0386 18.1818Z" fill="#1E5BDA"/>
</svg>
