<svg width="27" height="27" viewBox="0 0 27 27" fill="none" xmlns="http://www.w3.org/2000/svg">
<path fill-rule="evenodd" clip-rule="evenodd" d="M13.5 0C6.05613 0 0 6.05613 0 13.5C0 20.9433 6.05613 27 13.5 27C20.9433 27 27 20.9433 27 13.5C27 6.05613 20.9444 0 13.5 0ZM16.8567 13.9752H14.6603C14.6603 17.4843 14.6603 21.8036 14.6603 21.8036H11.4058C11.4058 21.8036 11.4058 17.5262 11.4058 13.9752H9.85871V11.2085H11.4058V9.41888C11.4058 8.13718 12.0148 6.13442 14.6902 6.13442L17.1019 6.14366V8.82941C17.1019 8.82941 15.6364 8.82941 15.3515 8.82941C15.0665 8.82941 14.6614 8.97189 14.6614 9.5831V11.209H17.1411L16.8567 13.9752Z" fill="#1E5BDA"/>
</svg>
