<svg width="27" height="27" viewBox="0 0 27 27" fill="none" xmlns="http://www.w3.org/2000/svg">
<path fill-rule="evenodd" clip-rule="evenodd" d="M13.5003 -3.05176e-05C6.04564 -3.05176e-05 0.000343323 6.04527 0.000343323 13.5C0.000343323 20.9547 6.04564 27 13.5003 27C20.955 27 27.0003 20.9547 27.0003 13.5C27.0003 6.04527 20.955 -3.05176e-05 13.5003 -3.05176e-05ZM21.2055 16.696C21.168 17.5212 21.0368 18.0846 20.8453 18.5777C20.4425 19.619 19.6194 20.4422 18.5781 20.8449C18.0851 21.0365 17.5215 21.1675 16.6965 21.2052C15.8699 21.2429 15.6058 21.2519 13.5005 21.2519C11.3951 21.2519 11.1312 21.2429 10.3044 21.2052C9.47935 21.1675 8.91575 21.0365 8.42281 20.8449C7.90535 20.6502 7.43692 20.3451 7.04965 19.9507C6.65538 19.5636 6.3503 19.095 6.15564 18.5777C5.96407 18.0848 5.83285 17.5212 5.79536 16.6962C5.75725 15.8693 5.74839 15.6052 5.74839 13.5C5.74839 11.3947 5.75725 11.1306 5.79515 10.304C5.83264 9.47877 5.96365 8.91537 6.15523 8.42223C6.34989 7.90498 6.65517 7.43634 7.04965 7.04928C7.43671 6.6548 7.90535 6.34972 8.4226 6.15506C8.91575 5.96349 9.47914 5.83247 10.3044 5.79478C11.131 5.75708 11.3951 5.74802 13.5003 5.74802C15.6056 5.74802 15.8697 5.75708 16.6963 5.79498C17.5215 5.83247 18.0849 5.96349 18.5781 6.15485C19.0953 6.34952 19.564 6.6548 19.9512 7.04928C20.3455 7.43655 20.6508 7.90498 20.8453 8.42223C21.037 8.91537 21.168 9.47877 21.2057 10.304C21.2434 11.1306 21.2523 11.3947 21.2523 13.5C21.2523 15.6052 21.2434 15.8693 21.2055 16.696ZM19.5431 8.92815C19.4189 8.59155 19.2207 8.28689 18.9632 8.03681C18.7132 7.77932 18.4087 7.58115 18.0719 7.45694C17.7987 7.35085 17.3884 7.22458 16.6326 7.19018C15.815 7.15289 15.5699 7.14486 13.5001 7.14486C11.43 7.14486 11.1849 7.15269 10.3675 7.18997C9.61173 7.22458 9.20119 7.35085 8.92825 7.45694C8.59145 7.58115 8.28678 7.77932 8.03691 8.03681C7.77942 8.28689 7.58125 8.59135 7.45683 8.92815C7.35075 9.20129 7.22447 9.61184 7.19007 10.3676C7.15279 11.185 7.14475 11.4301 7.14475 13.5002C7.14475 15.57 7.15279 15.8151 7.19007 16.6327C7.22447 17.3885 7.35075 17.7989 7.45683 18.072C7.58125 18.4088 7.77921 18.7133 8.03671 18.9633C8.28678 19.2208 8.59124 19.419 8.92804 19.5432C9.20119 19.6495 9.61173 19.7758 10.3675 19.8102C11.1849 19.8475 11.4298 19.8553 13.4999 19.8553C15.5701 19.8553 15.8152 19.8475 16.6324 19.8102C17.3882 19.7758 17.7987 19.6495 18.0719 19.5432C18.748 19.2824 19.2823 18.7481 19.5431 18.072C19.6492 17.7989 19.7755 17.3885 19.8101 16.6327C19.8474 15.8151 19.8552 15.57 19.8552 13.5002C19.8552 11.4301 19.8474 11.185 19.8101 10.3676C19.7757 9.61184 19.6494 9.20129 19.5431 8.92815ZM13.5005 17.4806C11.302 17.4806 9.51972 15.6985 9.51972 13.5C9.51972 11.3014 11.302 9.51935 13.5005 9.51935C15.6989 9.51935 17.4812 11.3014 17.4812 13.5C17.4812 15.6985 15.6989 17.4806 13.5005 17.4806ZM16.7073 9.36197C16.7073 9.87572 17.1238 10.2922 17.6375 10.2922C18.1513 10.2922 18.5676 9.87572 18.5678 9.36197C18.5678 8.84822 18.1513 8.4317 17.6375 8.4317C17.1238 8.4317 16.7073 8.84822 16.7073 9.36197ZM16.0843 13.5C16.0843 14.9271 14.9275 16.084 13.5003 16.084C12.0732 16.084 10.9164 14.9271 10.9164 13.5C10.9164 12.0728 12.0732 10.916 13.5003 10.916C14.9275 10.916 16.0843 12.0728 16.0843 13.5Z" fill="#1E5BDA"/>
</svg>
