<svg width="27" height="27" viewBox="0 0 27 27" fill="none" xmlns="http://www.w3.org/2000/svg">
<path fill-rule="evenodd" clip-rule="evenodd" d="M13.5 0C6.04416 0 0 6.04416 0 13.5C0 20.9558 6.04416 27 13.5 27C20.9558 27 27 20.9558 27 13.5C27 6.04416 20.9558 0 13.5 0ZM20.9719 13.0767H20.2617C20.2976 12.8343 20.3204 12.5883 20.3204 12.334C20.3204 9.87109 18.5697 7.87502 16.4099 7.87502C15.2382 7.87502 14.1939 8.47005 13.4774 9.40219V19.0217H20.9719C22.4107 19.0217 23.5787 17.691 23.5787 16.0481C23.5787 14.4068 22.4107 13.0767 20.9719 13.0767ZM12.2144 19.0218H10.9518V10.1366C11.4095 10.2028 11.8369 10.3741 12.2144 10.634V19.0218ZM9.68882 19.0218H8.42618V11.0158C8.78852 10.6633 9.2153 10.395 9.68882 10.2473V19.0218ZM5.90059 19.012V13.0858L5.982 13.0767H7.16323V19.0217H5.982L5.90059 19.012ZM3.375 16.0482C3.375 17.1274 3.88389 18.0631 4.63764 18.5849V13.5142C3.88389 14.0353 3.375 14.9711 3.375 16.0482Z" fill="#1E5BDA"/>
</svg>
