<svg width="27" height="27" viewBox="0 0 27 27" fill="none" xmlns="http://www.w3.org/2000/svg">
<path fill-rule="evenodd" clip-rule="evenodd" d="M13.5 0C6.04414 0 0 6.04419 0 13.5C0 20.9558 6.04414 27 13.5 27C20.9559 27 27 20.9558 27 13.5C27 6.04419 20.9559 0 13.5 0ZM19.0148 19.3194C18.8203 19.6463 18.4082 19.7783 18.0559 19.622C17.9851 19.5909 17.9187 19.5488 17.8517 19.5089C16.5443 18.733 15.1335 18.252 13.6342 18.0222C12.7139 17.8809 11.7885 17.8322 10.8595 17.8687C9.65749 17.9158 8.47059 18.0826 7.2965 18.3429C7.17789 18.3695 7.05564 18.3938 6.935 18.3949C6.5716 18.3982 6.26459 18.1403 6.20061 17.7901C6.13316 17.4193 6.31652 17.0718 6.65622 16.9349C6.72794 16.9061 6.80424 16.8878 6.87992 16.8706C7.84022 16.655 8.8099 16.491 9.7907 16.4078C10.3386 16.3613 10.8881 16.3436 11.4372 16.3125C13.0616 16.3297 14.6505 16.5498 16.1925 17.0706C17.0429 17.3577 17.8553 17.7297 18.6267 18.1899C18.6933 18.2298 18.7614 18.2692 18.8228 18.3163C19.1342 18.5529 19.2152 18.9813 19.0148 19.3194ZM20.6764 15.8748C20.3997 16.3047 19.825 16.4386 19.3472 16.1836C19.0777 16.0391 18.8113 15.8896 18.5358 15.7563C17.2728 15.146 15.9332 14.7503 14.5434 14.5013C13.4733 14.3089 12.3934 14.2155 11.2455 14.2107C9.81627 14.2165 8.35204 14.3843 6.92156 14.7864C6.68848 14.8523 6.45447 14.8565 6.22644 14.7689C5.85487 14.6266 5.61307 14.2733 5.62625 13.9002C5.63962 13.5104 5.89048 13.1715 6.28659 13.0568C6.68985 12.9399 7.09919 12.839 7.51078 12.7519C8.52393 12.5384 9.5511 12.4258 10.5886 12.3886C12.8209 12.3084 15.0017 12.5819 17.1292 13.2283C18.2051 13.555 19.2343 13.9828 20.2063 14.531C20.2545 14.5581 20.3024 14.5862 20.3509 14.6138C20.8575 14.907 20.918 15.4982 20.6764 15.8748ZM20.7294 12.2196C20.1835 11.9221 19.6248 11.6523 19.0425 11.4276C17.8858 10.9809 16.6874 10.6806 15.4623 10.4725C14.6097 10.3278 13.7505 10.2316 12.8865 10.1814C11.9882 10.1295 11.0894 10.1235 10.1899 10.1683C9.1591 10.2196 8.13663 10.3288 7.12754 10.5385C6.75517 10.6161 6.38745 10.7139 6.01899 10.8083C5.79306 10.8673 5.57054 10.8738 5.34575 10.8105C4.8537 10.6718 4.51418 10.2469 4.49976 9.74996C4.48524 9.26643 4.79507 8.81751 5.28153 8.66298C5.63755 8.54994 6.00288 8.46096 6.36852 8.37952C7.27359 8.17802 8.19109 8.05299 9.11628 7.97218C10.0988 7.88587 11.0827 7.85804 12.0673 7.88482C14.4937 7.95193 16.8725 8.2933 19.1747 9.05887C20.1132 9.37126 21.0169 9.7587 21.8754 10.2414C22.1816 10.4129 22.3871 10.6553 22.4653 10.9912C22.484 11.0709 22.4882 11.1534 22.4993 11.2353C22.4957 12.1175 21.5344 12.6582 20.7294 12.2196Z" fill="#1E5BDA"/>
</svg>
