<svg width="30" height="41" viewBox="0 0 30 41" fill="none" xmlns="http://www.w3.org/2000/svg">
<g filter="url(#filter0_d_2_5777)">
<path d="M28 26.9524L28 0L2 -1.1365e-06L2 26.9524L2 31.9197C2 35.0322 5.39847 36.9522 8.06443 35.3458L12.7022 32.5512C13.9493 31.7998 15.5061 31.7853 16.7669 32.5134L21.9997 35.5351C24.6664 37.075 28 35.1505 28 32.0712L28 26.9524Z" fill="#1E5BDA"/>
</g>
<path fill-rule="evenodd" clip-rule="evenodd" d="M15 21.1735L18.2737 23.2453C18.8732 23.6249 19.6068 23.0637 19.449 22.3538L18.5813 18.458L21.4763 15.8332C22.0048 15.3545 21.7208 14.4466 21.0267 14.3888L17.2166 14.0504L15.7257 10.3691C15.4575 9.70053 14.5425 9.70053 14.2743 10.3691L12.7834 14.0421L8.97333 14.3805C8.27915 14.4383 7.99517 15.3462 8.52369 15.825L11.4187 18.4497L10.551 22.3456C10.3932 23.0554 11.1268 23.6167 11.7263 23.237L15 21.1735Z" fill="white"/>
<defs>
<filter id="filter0_d_2_5777" x="0" y="0" width="30" height="40.0771" filterUnits="userSpaceOnUse" color-interpolation-filters="sRGB">
<feFlood flood-opacity="0" result="BackgroundImageFix"/>
<feColorMatrix in="SourceAlpha" type="matrix" values="0 0 0 0 0 0 0 0 0 0 0 0 0 0 0 0 0 0 127 0" result="hardAlpha"/>
<feOffset dy="2"/>
<feGaussianBlur stdDeviation="1"/>
<feComposite in2="hardAlpha" operator="out"/>
<feColorMatrix type="matrix" values="0 0 0 0 0 0 0 0 0 0 0 0 0 0 0 0 0 0 0.05 0"/>
<feBlend mode="normal" in2="BackgroundImageFix" result="effect1_dropShadow_2_5777"/>
<feBlend mode="normal" in="SourceGraphic" in2="effect1_dropShadow_2_5777" result="shape"/>
</filter>
</defs>
</svg>
