<svg width="27" height="27" viewBox="0 0 27 27" fill="none" xmlns="http://www.w3.org/2000/svg">
<path fill-rule="evenodd" clip-rule="evenodd" d="M13.5002 0C6.05633 0 0.000198364 6.05613 0.000198364 13.5C0.000198364 20.9433 6.05633 27 13.5002 27C20.9435 27 27.0002 20.9433 27.0002 13.5C27.0002 6.05613 20.9446 0 13.5002 0ZM19.2603 10.3932C19.2663 10.5278 19.2695 10.6634 19.2695 10.799C19.2695 14.928 16.1359 19.6875 10.4027 19.6875C8.64282 19.6875 7.00458 19.1718 5.62593 18.2849C5.8697 18.3139 6.11784 18.3286 6.36924 18.3286C7.8297 18.3286 9.1729 17.8288 10.2396 16.9911C8.87623 16.966 7.72499 16.0626 7.32852 14.8208C7.5183 14.8569 7.71408 14.8771 7.91423 14.8771C8.19835 14.8771 8.4743 14.84 8.73553 14.7683C7.30998 14.4818 6.23618 13.2192 6.23618 11.7045C6.23618 11.6914 6.23618 11.6777 6.23672 11.6651C6.65664 11.8986 7.1371 12.0397 7.64755 12.0556C6.81207 11.4962 6.26181 10.5392 6.26181 9.45545C6.26181 8.88239 6.41505 8.34541 6.68337 7.8839C8.21962 9.77479 10.5166 11.0183 13.106 11.1495C13.0525 10.9204 13.0258 10.6825 13.0258 10.437C13.0258 8.71178 14.4208 7.31248 16.1414 7.31248C17.038 7.31248 17.8467 7.69197 18.4161 8.29893C19.1267 8.15895 19.792 7.89976 20.3957 7.5405C20.1612 8.2705 19.6687 8.88239 19.0236 9.26953C19.6546 9.19407 20.2566 9.02675 20.8134 8.77795C20.3979 9.4035 19.8694 9.95415 19.2603 10.3932Z" fill="#1E5BDA"/>
</svg>
