<svg width="27" height="27" viewBox="0 0 27 27" fill="none" xmlns="http://www.w3.org/2000/svg">
<path fill-rule="evenodd" clip-rule="evenodd" d="M13.5002 -3.05176e-05C6.04549 -3.05176e-05 0.000198364 6.04527 0.000198364 13.5C0.000198364 20.9547 6.04549 27 13.5002 27C20.9549 27 27.0002 20.9547 27.0002 13.5C27.0002 6.04527 20.9549 -3.05176e-05 13.5002 -3.05176e-05ZM21.9363 13.5138C21.9363 13.5138 21.9363 16.2516 21.589 17.5718C21.3943 18.2945 20.8245 18.8643 20.1019 19.0587C18.7817 19.4062 13.5008 19.4062 13.5008 19.4062C13.5008 19.4062 8.23376 19.4062 6.89975 19.0449C6.17712 18.8504 5.60735 18.2805 5.41268 17.5578C5.06517 16.2516 5.06517 13.5 5.06517 13.5C5.06517 13.5 5.06517 10.7623 5.41268 9.4421C5.60714 8.71947 6.19093 8.13569 6.89975 7.94123C8.21996 7.59372 13.5008 7.59372 13.5008 7.59372C13.5008 7.59372 18.7817 7.59372 20.1019 7.95503C20.8245 8.14949 21.3943 8.71947 21.589 9.4421C21.9503 10.7623 21.9363 13.5138 21.9363 13.5138ZM16.2098 13.5L11.8185 16.0292V10.9708L16.2098 13.5Z" fill="#1E5BDA"/>
</svg>
